<svg xmlns="http://www.w3.org/2000/svg" width="20" height="20" viewBox="0 0 20 20" fill="none">
<path d="M11.8884 8.67993C11.6042 9.81674 9.83481 9.23916 9.28474 9.08331L9.78897 7.08473C10.3574 7.24975 12.1818 7.48811 11.8884 8.67993ZM9.03721 10.1101L8.48714 12.3196C9.16556 12.4937 11.265 13.163 11.5767 11.9162C11.9067 10.6143 9.71563 10.2751 9.03721 10.1101ZM18.7276 12.2187C17.4991 17.1327 12.5302 20.1214 7.6162 18.8929C2.70225 17.6644 -0.28371 12.6954 0.942028 7.78148C1.23324 6.61358 1.75167 5.51449 2.46771 4.54698C3.18375 3.57947 4.08338 2.7625 5.1152 2.14272C6.14703 1.52294 7.29084 1.1125 8.48132 0.934844C9.67179 0.757187 10.8856 0.81579 12.0534 1.10731C16.9582 2.3358 19.9469 7.30475 18.7276 12.2187ZM11.8609 6.3788L12.2735 4.7286L11.265 4.4994L10.8616 6.08543C10.5957 6.02126 10.3299 5.95708 10.0548 5.90208L10.4582 4.27937L9.45893 4.04101L9.04638 5.68205C8.82635 5.62704 8.60632 5.5812 8.40463 5.5262L7.02029 5.17782L6.74526 6.25045C6.74526 6.25045 7.49702 6.42464 7.47868 6.43381C7.89124 6.53466 7.96458 6.79136 7.94624 7.02055L6.8186 11.5403C6.77276 11.6686 6.62608 11.8337 6.36021 11.7878C6.36938 11.797 5.62678 11.6045 5.62678 11.6045L5.13172 12.7504L6.43355 13.0805C6.68108 13.1447 6.91945 13.2088 7.15781 13.2638L6.73609 14.9324L7.74455 15.1891L8.1571 13.5297C8.43214 13.603 8.698 13.6672 8.9547 13.7406L8.54215 15.3816L9.55061 15.6383L9.97233 13.9698C11.6684 14.2906 12.9702 14.1623 13.5019 12.6129C13.9603 11.3753 13.5019 10.6418 12.5852 10.1743C13.2452 10.0001 13.7403 9.58754 13.8778 8.68909C14.0612 7.46977 13.1261 6.81886 11.8609 6.3788Z" fill="#ffffffff"/>
</svg>