<svg xmlns="http://www.w3.org/2000/svg" width="20" height="20" viewBox="0 0 20 20" fill="none">
<path fill-rule="evenodd" clip-rule="evenodd" d="M11.4036 1.28403C11.5266 1.32646 11.6333 1.40623 11.7089 1.51222C11.7844 1.61822 11.8249 1.74514 11.8248 1.87528V8.75028H15.5748C15.6921 8.7503 15.807 8.78331 15.9064 8.84554C16.0058 8.90777 16.0857 8.9967 16.1369 9.10218C16.1881 9.20766 16.2087 9.32543 16.1962 9.44202C16.1836 9.55862 16.1386 9.66934 16.0661 9.76153L9.19109 18.5115C9.11076 18.6137 9.00059 18.6882 8.87592 18.7248C8.75124 18.7614 8.61826 18.7583 8.49546 18.7158C8.37267 18.6733 8.26617 18.5936 8.19078 18.4877C8.1154 18.3819 8.07487 18.2552 8.07484 18.1253V11.2503H4.32484C4.20757 11.2503 4.09268 11.2172 3.99329 11.155C3.89389 11.0928 3.81401 11.0039 3.76277 10.8984C3.71153 10.7929 3.691 10.6751 3.70353 10.5585C3.71605 10.4419 3.76112 10.3312 3.83359 10.239L10.7086 1.48903C10.7888 1.38689 10.8988 1.31227 11.0233 1.27553C11.1479 1.2388 11.2808 1.24177 11.4036 1.28403Z" fill="#ffffffff"/>
</svg>