<svg xmlns="http://www.w3.org/2000/svg" width="20" height="20" viewBox="0 0 20 20" fill="none">
<path d="M1.25 10C1.25 5.1675 5.1675 1.25 10 1.25C14.8325 1.25 18.75 5.1675 18.75 10C18.75 14.8325 14.8325 18.75 10 18.75C5.1675 18.75 1.25 14.8325 1.25 10ZM9.56938 2.5125C9.57653 2.61755 9.55373 2.72248 9.50361 2.81509C9.45349 2.90769 9.37812 2.98417 9.28625 3.03562L6.94687 4.335C6.89909 4.36156 6.84803 4.38173 6.795 4.395L6.55312 4.45563L6.68813 5.4L8.8725 5.8375C8.99435 5.86179 9.10619 5.92185 9.19375 6.01L11.875 4.66875V3.51063C11.875 3.36165 11.9282 3.21756 12.025 3.10434C12.1219 2.99112 12.2559 2.91622 12.4031 2.89313C11.4917 2.5855 10.5297 2.45669 9.56938 2.5125ZM4.86313 4.535C3.64574 5.67728 2.84499 7.19362 2.58812 8.84313L4.5675 7.85375C4.58167 7.82 4.59917 7.7875 4.62 7.75625L6.01875 5.66062C6.10232 5.5352 6.22839 5.44419 6.37375 5.40438L6.24875 4.53187L5.48 4.72375C5.36991 4.75202 5.25416 4.74942 5.14546 4.71623C5.03675 4.68305 4.93928 4.62056 4.86375 4.53562M2.54125 9.21688C2.51375 9.47354 2.5 9.73354 2.5 9.99687V10.0031C2.5 10.8556 2.64313 11.6756 2.90563 12.4394L4.59938 14.3219C4.65501 14.255 4.72398 14.2005 4.80188 14.1619L5.92562 13.5994C5.98389 13.5705 6.04631 13.5509 6.11063 13.5413L6.36563 10.4844C6.2048 10.4591 6.06016 10.3721 5.9625 10.2419L4.64062 8.47875C4.58396 8.40342 4.54508 8.31624 4.52688 8.22375L2.54125 9.21688ZM4.46875 14.6438L3.2675 13.3088C3.62534 14.0363 4.09878 14.7009 4.66938 15.2769C4.6002 15.1347 4.5411 14.9879 4.4925 14.8375C4.47193 14.7751 4.46386 14.7093 4.46875 14.6438ZM10 17.5C11.6038 17.5 13.09 16.9963 14.3094 16.1388L14.4631 14.9119C14.3913 14.9213 14.3183 14.9181 14.2475 14.9025L12.3644 14.4837C12.234 14.4547 12.1164 14.3846 12.0288 14.2838L9.01 15.6775L9.00688 15.7025L8.84375 16.8463C8.83062 16.9363 8.79875 17.0212 8.7525 17.0963C9.02688 17.25 9.31437 17.38 9.6025 17.49C9.73375 17.4963 9.86625 17.4996 10 17.5ZM14.7969 14.7612L14.6569 15.88C15.9946 14.8212 16.9313 13.3379 17.3125 11.675L16.3981 12.1319C16.3854 12.1646 16.3699 12.1961 16.3519 12.2262L14.9194 14.6138C14.8864 14.6689 14.8451 14.7187 14.7969 14.7612ZM16.4256 11.7688L17.39 11.2869C17.4633 10.8681 17.5 10.4392 17.5 10C17.5 8.35812 16.9725 6.83938 16.0775 5.60437C16.0617 5.7453 15.9984 5.87665 15.8981 5.97687L15.345 6.53C15.2841 6.59092 15.2112 6.63857 15.1309 6.66998C15.0507 6.70139 14.9648 6.71586 14.8787 6.7125L15.1206 9.92813C15.1847 9.97049 15.2404 10.0243 15.285 10.0869L16.3244 11.5419C16.3744 11.6106 16.4081 11.6888 16.4256 11.7688ZM6.68188 10.4525L6.42188 13.5725C6.46765 13.5894 6.51128 13.6117 6.55188 13.6388L8.735 15.0938C8.83236 15.1589 8.90945 15.25 8.9575 15.3569L11.8888 14.0044C11.8795 13.9612 11.8749 13.9172 11.875 13.8731V11.3606C11.8749 11.2705 11.8943 11.1813 11.9319 11.0994L9.11687 9.4575C9.07515 9.48798 9.0298 9.51318 8.98188 9.5325L6.69438 10.4469L6.68188 10.4525ZM9.31812 9.21313L12.1325 10.855C12.1744 10.8245 12.22 10.7993 12.2681 10.78L14.5444 9.87C14.6255 9.83749 14.7126 9.82237 14.8 9.82562L14.5581 6.61L12.1781 5.18188C12.0919 5.1301 12.0194 5.05827 11.9669 4.9725L9.35188 6.28C9.36729 6.33417 9.375 6.39083 9.375 6.45V8.95187C9.37511 9.04204 9.35571 9.13116 9.31812 9.21313Z" fill="#ffffffff"/>
</svg>