<svg xmlns="http://www.w3.org/2000/svg" width="20" height="20" viewBox="0 0 20 20" fill="none">
<path d="M16.3717 5.27517C15.7097 4.1718 14.496 3.62012 13.1719 3.62012H6.5517C5.22766 3.62012 4.01395 4.1718 3.35193 5.27517C0.814179 9.13697 0.262494 14.9848 2.02789 16.1985C3.79328 17.4122 7.76541 12.1161 9.86182 12.1161C11.9582 12.1161 15.82 17.4122 17.6957 16.1985C19.4611 14.9848 18.9095 9.13697 16.3717 5.27517ZM7.65508 9.13697H6.5517V10.2403H5.44833V9.13697H4.34496V8.0336H5.44833V6.93023H6.5517V8.0336H7.65508V9.13697ZM13.6133 9.68866C13.6133 10.2403 13.1719 10.6817 12.6202 10.6817C12.0686 10.6817 11.6272 10.2403 11.6272 9.68866C11.6272 9.13697 12.0686 8.69562 12.6202 8.69562C13.1719 8.69562 13.6133 9.13697 13.6133 9.68866ZM15.7097 7.48191C15.7097 8.0336 15.2683 8.47495 14.7166 8.47495C14.165 8.47495 13.7236 8.0336 13.7236 7.48191C13.7236 6.93023 14.165 6.48888 14.7166 6.48888C15.2683 6.48888 15.7097 6.93023 15.7097 7.48191Z" fill="#ffffffff"/>
</svg>