<svg xmlns="http://www.w3.org/2000/svg" width="20" height="20" viewBox="0 0 20 20" fill="none">
<path d="M4.93359 8.80039H6.00039V15.2004H7.60039V9.60039H9.20039V15.2004H10.8004V9.60039H12.4004V15.2004H14.0004V8.80039H15.0668C15.3612 8.80039 15.6004 8.50599 15.6004 8.24079C15.6004 8.08039 15.512 7.89959 15.3784 7.81239L15.3792 7.79159L15.3708 7.77679L15.4244 7.76359L10.4004 5.17599V4.41919C11.2004 4.84279 11.9808 4.11319 13.2004 4.55199V2.88039C11.98 2.44199 11.2004 3.17119 10.4004 2.74759V2.64039C10.4004 2.50799 10.148 2.40039 10.0004 2.40039C9.85279 2.40039 9.60039 2.50799 9.60039 2.64039V5.17599L4.57679 7.75839L4.68519 7.76679L4.80039 7.77119V7.77199C4.40039 7.85919 4.48999 8.07999 4.48999 8.24039C4.48959 8.50599 4.63919 8.80039 4.93359 8.80039ZM5.60039 15.6004L4.40039 16.8004H15.6004L14.4004 15.6004H5.60039ZM14.4004 9.20039V15.2004H14.7544L14.9108 15.4216L15.9772 16.4212L16.3544 16.8004H19.6004V9.20039H14.4004ZM16.8004 14.0004H15.6004V12.8004H16.8004V14.0004ZM16.8004 11.6004H15.6004V10.4004H16.8004V11.6004ZM18.4004 14.0004H17.6004V12.8004H18.4004V14.0004ZM18.4004 11.6004H17.6004V10.4004H18.4004V11.6004ZM5.24599 15.2004H5.60039V9.20039H0.400391V16.8004H3.64599L4.02279 16.4612L5.08959 15.4212L5.24599 15.2004ZM2.40039 14.0004H1.60039V12.8004H2.40039V14.0004ZM2.40039 11.6004H1.60039V10.4004H2.40039V11.6004ZM4.40039 14.0004H3.20039V12.8004H4.40039V14.0004ZM4.40039 11.6004H3.20039V10.4004H4.40039V11.6004Z" fill="#ffffffff"/>
</svg>