<svg xmlns="http://www.w3.org/2000/svg" width="20" height="20" viewBox="0 0 20 20" fill="none">
<path d="M8.23587 17.9416C8.11739 18.052 7.96068 18.1121 7.79877 18.1093C7.63685 18.1064 7.48236 18.0408 7.36785 17.9263C7.25334 17.8118 7.18775 17.6573 7.18489 17.4954C7.18203 17.3335 7.24214 17.1768 7.35254 17.0583L9.55837 14.8525C9.61559 14.7911 9.68459 14.7418 9.76125 14.7076C9.83792 14.6735 9.92068 14.6551 10.0046 14.6536C10.0885 14.6522 10.1719 14.6676 10.2497 14.699C10.3275 14.7305 10.3982 14.7773 10.4576 14.8366C10.5169 14.8959 10.5637 14.9666 10.5951 15.0445C10.6266 15.1223 10.642 15.2056 10.6405 15.2896C10.639 15.3735 10.6207 15.4562 10.5865 15.5329C10.5524 15.6096 10.5031 15.6786 10.4417 15.7358L8.23587 17.9416ZM3.82503 17.06C3.70768 17.1774 3.54846 17.2435 3.38241 17.2435C3.21637 17.2436 3.05709 17.1777 2.93962 17.0604C2.82215 16.943 2.75611 16.7838 2.75603 16.6178C2.75596 16.4517 2.82184 16.2924 2.9392 16.175L7.79253 11.3216C7.85022 11.262 7.91921 11.2144 7.99547 11.1817C8.07174 11.1489 8.15376 11.1317 8.23675 11.1311C8.31974 11.1304 8.40203 11.1462 8.47882 11.1777C8.55562 11.2092 8.62538 11.2556 8.68403 11.3143C8.74269 11.373 8.78906 11.4428 8.82045 11.5196C8.85184 11.5965 8.86762 11.6788 8.86686 11.7618C8.8661 11.8448 8.84882 11.9268 8.81603 12.003C8.78323 12.0792 8.73559 12.1482 8.67587 12.2058L3.82503 17.06ZM12.765 13.3675C12.7132 13.4714 12.6334 13.5587 12.5346 13.6198C12.4358 13.6809 12.322 13.7133 12.2059 13.7133C12.0897 13.7133 11.9759 13.6809 11.8771 13.6198C11.7784 13.5587 11.6986 13.4714 11.6467 13.3675L9.97504 10.025L6.63337 8.3533C6.52947 8.30142 6.44209 8.22162 6.38101 8.12286C6.31993 8.02409 6.28758 7.91026 6.28758 7.79413C6.28758 7.67801 6.31993 7.56417 6.38101 7.46541C6.44209 7.36664 6.52947 7.28684 6.63337 7.23497L9.97587 5.5633L11.6475 2.2208C11.6994 2.1169 11.7792 2.02952 11.878 1.96844C11.9767 1.90736 12.0906 1.87501 12.2067 1.87501C12.3228 1.87501 12.4367 1.90736 12.5354 1.96844C12.6342 2.02952 12.714 2.1169 12.7659 2.2208L14.4375 5.5633L17.78 7.23497C17.8839 7.28684 17.9713 7.36664 18.0324 7.46541C18.0935 7.56417 18.1258 7.67801 18.1258 7.79413C18.1258 7.91026 18.0935 8.02409 18.0324 8.12286C17.9713 8.22162 17.8839 8.30142 17.78 8.3533L14.4375 10.025L12.765 13.3675ZM2.9417 12.6475C2.82322 12.7579 2.66652 12.818 2.5046 12.8151C2.34268 12.8123 2.18819 12.7467 2.07368 12.6322C1.95917 12.5176 1.89358 12.3632 1.89072 12.2012C1.88787 12.0393 1.94797 11.8826 2.05837 11.7641L4.2642 9.5583C4.38268 9.4479 4.53939 9.3878 4.7013 9.39065C4.86322 9.39351 5.01771 9.4591 5.13222 9.57361C5.24673 9.68812 5.31232 9.84261 5.31518 10.0045C5.31804 10.1664 5.25794 10.3232 5.14754 10.4416L2.9417 12.6475Z" fill="#ffffffff"/>
</svg>